# xmcd CD database file
#
# Track frame offsets:
#	150
#	28412
#	35617
#	58624
#	83833
#	103698
#	121990
#	144555
#	163393
#	183908
#	204895
#	221578
#	241586
#	264629
#	288512
#
# Disc length: 4175 seconds
#
# Revision: 1
# Processed by: cddbd v1.5PL3 Copyright (c) Steve Scherf et al.
# Submitted via: CDex 1.51
#
DISCID=dc104d0f
DTITLE=S. E. N. S - Movement
DYEAR=1999
DGENRE=New Age
TTITLE0=Asian Blue
TTITLE1=Peace of Mind - Strings
TTITLE2=Palace Memories
TTITLE3=Kagayaku toki no naka de
TTITLE4=Flying
TTITLE5=Tin Field
TTITLE6=Heaven's Song
TTITLE7=Sora no kioku
TTITLE8=Aurora
TTITLE9=Prime Season
TTITLE10=Brightness
TTITLE11=Magic Warriors
TTITLE12=Loiseau Bleu
TTITLE13=Afternoon Tea
TTITLE14=Wish
EXTD=YEAR: 1999
EXTT0=
EXTT1=
EXTT2=
EXTT3=
EXTT4=
EXTT5=
EXTT6=
EXTT7=
EXTT8=
EXTT9=
EXTT10=
EXTT11=
EXTT12=
EXTT13=
EXTT14=
PLAYORDER=
